<svg width="140" height="32" viewBox="0 0 140 32" fill="none" xmlns="http://www.w3.org/2000/svg">
<g clip-path="url(#clip0_6310_7260)">
<mask id="mask0_6310_7260" style="mask-type:luminance" maskUnits="userSpaceOnUse" x="0" y="0" width="140" height="32">
<path d="M0.0494843 31.5645H139.214L138.907 0.435547H0.0493164V31.5645H0.0494843Z" fill="white"/>
</mask>
<g mask="url(#mask0_6310_7260)">
<path d="M5.98181 14.8364C5.98114 17.5545 6.69035 20.2259 8.03941 22.5841C9.38797 24.942 11.3292 26.9051 13.6698 28.2775L13.8296 28.367C16.1672 29.7041 18.8126 30.4055 21.504 30.4021C19.3834 31.2745 17.0966 31.6654 14.8079 31.5468C12.5187 31.4281 10.2844 30.8028 8.26495 29.7155C6.24581 28.6282 4.49151 27.106 3.12835 25.2585C1.76551 23.4107 0.827401 21.2834 0.381353 19.029C-0.0643598 16.7748 -0.00675641 14.4496 0.549964 12.2203C1.10685 9.99116 2.14892 7.91283 3.60177 6.13512C5.05445 4.3579 6.8818 2.92489 8.9525 1.93942C11.023 0.953781 13.2857 0.440428 15.5776 0.435547C18.3759 1.5969 20.7743 3.5527 22.4782 6.06308C24.1821 8.57329 25.117 11.528 25.1679 14.5639C25.0855 12.0468 24.0216 9.66261 22.2051 7.9231C20.3887 6.18359 17.9645 5.22741 15.4526 5.2604C12.9411 5.29288 10.5426 6.31201 8.77163 8.09831C7.00104 9.88462 5.99944 12.2959 5.98215 14.8143V14.8362L5.98181 14.8364Z" fill="#001D80"/>
<path d="M31.1003 16.0013C31.102 19.0844 30.1913 22.0986 28.4828 24.662C26.7749 27.2257 24.3461 29.2231 21.5049 30.4018C18.8135 30.4051 16.1681 29.7038 13.8306 28.3667C14.3757 28.6619 14.9865 28.8141 15.6064 28.8094C16.2257 28.8048 16.8345 28.6429 17.3751 28.3394L17.4781 28.2771C19.7855 26.9263 21.7059 25.0008 23.0532 22.6877C24.4007 20.374 25.1292 17.751 25.1687 15.0723C25.1687 15.037 25.1687 15.0013 25.1687 14.9661C25.1697 14.9426 25.1697 14.919 25.1687 14.8956V14.836C25.1687 14.7869 25.1687 14.7409 25.1687 14.6945C25.1687 14.6485 25.1687 14.624 25.1687 14.5858C25.122 11.5462 24.1891 8.58642 22.4848 6.07217C20.7806 3.55741 18.3799 1.59825 15.5783 0.435547C19.6954 0.43622 23.6435 2.07643 26.5542 4.99564C29.4651 7.91485 31.1003 11.8736 31.1003 16.0014V16.0013Z" fill="#79D0F2"/>
<path d="M15.5745 20.6294C18.8489 20.6294 21.5037 17.968 21.5037 14.6847C21.5037 11.4014 18.8489 8.73975 15.5745 8.73975C12.3 8.73975 9.64551 11.4014 9.64551 14.6847C9.64551 17.968 12.3 20.6294 15.5745 20.6294Z" fill="#F2CB05"/>
<path d="M52.9038 18.1347C52.9038 21.9536 55.9202 25.0297 59.6246 25.0297C62.4294 25.0297 64.89 23.359 65.922 20.8927L62.2441 20.0177C61.7678 20.8927 60.7889 21.3966 59.6246 21.3966C58.0369 21.3966 56.9522 20.3359 56.714 18.8508H66.4248C66.4512 18.5855 66.4777 18.3204 66.4777 18.0553C66.4514 14.2896 63.3819 11.24 59.6246 11.24C55.9202 11.24 52.9038 14.3162 52.9038 18.1349V18.1347ZM59.6246 14.6344C60.974 14.6344 62.006 15.43 62.4557 16.6233H56.8993C57.3225 15.43 58.3016 14.6344 59.6246 14.6344Z" fill="#001D80"/>
<path d="M67.5205 15.536C67.5205 19.0896 70.8545 19.3547 73.13 19.726C74.2678 19.9116 75.1675 20.1239 75.1675 20.8133C75.1409 21.2374 74.8499 21.927 73.1566 21.927C71.9659 21.9536 71.0926 21.5823 71.0926 20.6806H67.5736C67.5736 23.9158 70.2724 25.0297 73.1566 25.0297C75.9613 25.0297 79.11 23.9954 79.1364 20.7337C79.11 17.631 76.2789 17.1271 74.0562 16.7559C72.6276 16.5173 71.4631 16.3318 71.4631 15.5626C71.4631 15.0588 71.9393 14.6609 73.236 14.6609C74.5061 14.6609 74.9559 15.0588 74.9559 15.7482H78.5014C78.5014 13.4146 76.8344 11.24 72.9448 11.24C69.9813 11.24 67.5205 12.4865 67.5205 15.536Z" fill="#001D80"/>
<path d="M80.0703 15.35H81.658V20.6271C81.658 23.12 83.0339 24.764 85.0712 24.764H88.9343V20.9189H87.1616C86.1825 20.9189 85.5475 20.256 85.5475 19.2483V15.3501H88.9343V11.5049H85.5475V7.79224H81.658V11.5049H80.0703V15.3501V15.35Z" fill="#001D80"/>
<path d="M95.3296 24.7642V18.1345H98.002C102.05 18.1345 104.67 16.1986 104.67 12.2209C104.67 8.24314 102.05 6.20117 98.002 6.20117H91.4399V24.7642H95.3294H95.3296ZM97.9491 10.0463C99.9337 10.0463 100.807 10.9215 100.807 12.1148C100.807 13.5734 99.9335 14.2893 97.9491 14.2893H95.3296V10.0463H97.9491Z" fill="#001D80"/>
<path d="M104.823 21.2374C104.955 23.2794 106.781 25.0297 109.215 25.0297C111.464 25.0297 112.893 24.1014 114.004 23.0937V24.7644H117.867V16.6233C117.867 12.8841 115.459 11.24 111.252 11.24C109.294 11.24 106.913 11.85 105.51 12.619L106.41 15.6952C107.23 15.2975 109.718 14.8466 111.517 14.9262C112.866 15.0056 113.898 15.3769 113.951 16.1992L113.978 16.4114L108.712 16.8887C106.092 17.101 104.664 19.1958 104.823 21.2378V21.2374ZM108.421 20.7337C108.421 20.1503 108.95 19.673 110.326 19.4873L114.004 18.9834V19.5137C113.925 20.2033 112.178 21.874 110.114 21.874C109.003 21.874 108.421 21.3435 108.421 20.7337Z" fill="#001D80"/>
<path d="M118.288 11.5034L124.347 24.7626L121.939 30.0663H125.961L134.455 11.5034H130.433L126.384 20.4136L122.31 11.5034H118.288Z" fill="#001D80"/>
<path d="M42.7964 5.70728C47.7096 5.70728 50.9262 8.46491 50.9262 13.7604V25.2593H46.8481V14.1653C46.8481 10.878 45.3818 9.31001 42.7829 9.31001C40.1847 9.31001 38.7487 10.8778 38.7487 14.1653V25.2593H34.6641V13.7604C34.6641 8.46491 37.9189 5.70728 42.7962 5.70728H42.7964Z" fill="#001D80"/>
</g>
</g>
<defs>
<clipPath id="clip0_6310_7260">
<rect width="139.165" height="31.1289" fill="white" transform="translate(0.0493164 0.435547)"/>
</clipPath>
</defs>
</svg>
